<svg width="17" height="13" viewBox="0 0 17 13" fill="none" xmlns="http://www.w3.org/2000/svg">
<circle cx="8.625" cy="5.875" r="0.625" fill="white"/>
<circle cx="9.875" cy="4.625" r="0.625" fill="white"/>
<circle cx="11.125" cy="4.625" r="0.625" fill="white"/>
<circle cx="12.375" cy="5.875" r="0.625" fill="white"/>
<circle cx="12.375" cy="7.125" r="0.625" fill="white"/>
<circle cx="11.125" cy="8.375" r="0.625" fill="white"/>
<circle cx="9.875" cy="8.375" r="0.625" fill="white"/>
<circle cx="8.625" cy="7.125" r="0.625" fill="white"/>
<circle cx="12.625" cy="1.875" r="0.625" fill="white"/>
<circle cx="13.875" cy="0.625" r="0.625" fill="white"/>
<circle cx="15.125" cy="0.625" r="0.625" fill="white"/>
<circle cx="16.375" cy="1.875" r="0.625" fill="white"/>
<circle cx="16.375" cy="3.125" r="0.625" fill="white"/>
<circle cx="15.125" cy="4.375" r="0.625" fill="white"/>
<circle cx="13.875" cy="4.375" r="0.625" fill="white"/>
<circle cx="12.625" cy="3.125" r="0.625" fill="white"/>
<circle cx="0.625" cy="5.875" r="0.625" fill="white"/>
<circle cx="1.875" cy="4.625" r="0.625" fill="white"/>
<circle cx="3.125" cy="4.625" r="0.625" fill="white"/>
<circle cx="4.375" cy="5.875" r="0.625" fill="white"/>
<circle cx="4.375" cy="7.125" r="0.625" fill="white"/>
<circle cx="3.125" cy="8.375" r="0.625" fill="white"/>
<circle cx="1.875" cy="8.375" r="0.625" fill="white"/>
<circle cx="0.625" cy="7.125" r="0.625" fill="white"/>
<circle cx="4.625" cy="9.875" r="0.625" fill="white"/>
<circle cx="5.875" cy="8.625" r="0.625" fill="white"/>
<circle cx="7.125" cy="8.625" r="0.625" fill="white"/>
<circle cx="8.375" cy="9.875" r="0.625" fill="white"/>
<circle cx="8.375" cy="11.125" r="0.625" fill="white"/>
<circle cx="7.125" cy="12.375" r="0.625" fill="white"/>
<circle cx="5.875" cy="12.375" r="0.625" fill="white"/>
<circle cx="4.625" cy="11.125" r="0.625" fill="white"/>
</svg>
