<svg width="33" height="27" viewBox="0 0 33 27" fill="none" xmlns="http://www.w3.org/2000/svg">
<circle cx="13.5" cy="25.5" r="1.5" fill="#212121"/>
<circle cx="22.5" cy="22.5" r="1.5" fill="#212121"/>
<circle cx="25.5" cy="19.5" r="1.5" fill="#212121"/>
<circle cx="28.5" cy="16.5" r="1.5" fill="#212121"/>
<circle cx="31.5" cy="13.5" r="1.5" fill="#212121"/>
<circle cx="31.5" cy="10.5" r="1.5" fill="#212121"/>
<circle cx="31.5" cy="7.5" r="1.5" fill="#212121"/>
<circle cx="31.5" cy="4.5" r="1.5" fill="#212121"/>
<circle cx="28.5" cy="1.5" r="1.5" fill="#212121"/>
<circle cx="25.5" cy="1.5" r="1.5" fill="#212121"/>
<circle cx="22.5" cy="1.5" r="1.5" fill="#212121"/>
<circle cx="25.5" cy="4.5" r="1.5" fill="#212121"/>
<circle cx="25.5" cy="7.5" r="1.5" fill="#212121"/>
<circle cx="25.5" cy="13.5" r="1.5" fill="#212121"/>
<circle cx="25.5" cy="10.5" r="1.5" fill="#212121"/>
<circle cx="25.5" cy="16.5" r="1.5" fill="#212121"/>
<circle cx="22.5" cy="4.5" r="1.5" fill="#212121"/>
<circle cx="19.5" cy="4.5" r="1.5" fill="#212121"/>
<circle cx="16.5" cy="7.5" r="1.5" fill="#212121"/>
<circle cx="22.5" cy="7.5" r="1.5" fill="#212121"/>
<circle cx="22.5" cy="13.5" r="1.5" fill="#212121"/>
<circle cx="22.5" cy="10.5" r="1.5" fill="#212121"/>
<circle cx="22.5" cy="16.5" r="1.5" fill="#212121"/>
<circle cx="22.5" cy="19.5" r="1.5" fill="#212121"/>
<circle cx="19.5" cy="25.5" r="1.5" fill="#212121"/>
<circle cx="19.5" cy="7.5" r="1.5" fill="#212121"/>
<circle cx="16.5" cy="13.5" r="1.5" fill="#212121"/>
<circle cx="16.5" cy="10.5" r="1.5" fill="#212121"/>
<circle cx="19.5" cy="13.5" r="1.5" fill="#212121"/>
<circle cx="19.5" cy="10.5" r="1.5" fill="#212121"/>
<circle cx="16.5" cy="16.5" r="1.5" fill="#212121"/>
<circle cx="19.5" cy="16.5" r="1.5" fill="#212121"/>
<circle cx="16.5" cy="19.5" r="1.5" fill="#212121"/>
<circle cx="19.5" cy="19.5" r="1.5" fill="#212121"/>
<circle cx="16.5" cy="22.5" r="1.5" fill="#212121"/>
<circle cx="19.5" cy="22.5" r="1.5" fill="#212121"/>
<circle cx="16.5" cy="25.5" r="1.5" fill="#212121"/>
<circle cx="28.5" cy="4.5" r="1.5" fill="#212121"/>
<circle cx="28.5" cy="7.5" r="1.5" fill="#212121"/>
<circle cx="28.5" cy="13.5" r="1.5" fill="#212121"/>
<circle cx="28.5" cy="10.5" r="1.5" fill="#212121"/>
<circle cx="13.5" cy="7.5" r="1.5" fill="#212121"/>
<circle cx="13.5" cy="13.5" r="1.5" fill="#212121"/>
<circle cx="13.5" cy="10.5" r="1.5" fill="#212121"/>
<circle cx="13.5" cy="16.5" r="1.5" fill="#212121"/>
<circle cx="13.5" cy="19.5" r="1.5" fill="#212121"/>
<circle cx="13.5" cy="22.5" r="1.5" fill="#212121"/>
<circle cx="10.5" cy="22.5" r="1.5" fill="#212121"/>
<circle cx="7.5" cy="19.5" r="1.5" fill="#212121"/>
<circle cx="4.5" cy="16.5" r="1.5" fill="#212121"/>
<circle cx="1.5" cy="13.5" r="1.5" fill="#212121"/>
<circle cx="1.5" cy="10.5" r="1.5" fill="#212121"/>
<circle cx="1.5" cy="7.5" r="1.5" fill="#212121"/>
<circle cx="1.5" cy="4.5" r="1.5" fill="#212121"/>
<circle cx="4.5" cy="1.5" r="1.5" fill="#212121"/>
<circle cx="7.5" cy="1.5" r="1.5" fill="#212121"/>
<circle cx="10.5" cy="1.5" r="1.5" fill="#212121"/>
<circle cx="10.5" cy="4.5" r="1.5" fill="#212121"/>
<circle cx="13.5" cy="4.5" r="1.5" fill="#212121"/>
<circle cx="10.5" cy="7.5" r="1.5" fill="#212121"/>
<circle cx="10.5" cy="13.5" r="1.5" fill="#212121"/>
<circle cx="10.5" cy="10.5" r="1.5" fill="#212121"/>
<circle cx="10.5" cy="16.5" r="1.5" fill="#212121"/>
<circle cx="10.5" cy="19.5" r="1.5" fill="#212121"/>
<circle cx="4.5" cy="4.5" r="1.5" fill="#212121"/>
<circle cx="4.5" cy="7.5" r="1.5" fill="#212121"/>
<circle cx="4.5" cy="13.5" r="1.5" fill="#212121"/>
<circle cx="4.5" cy="10.5" r="1.5" fill="#212121"/>
<circle cx="7.5" cy="4.5" r="1.5" fill="#212121"/>
<circle cx="7.5" cy="7.5" r="1.5" fill="#212121"/>
<circle cx="7.5" cy="13.5" r="1.5" fill="#212121"/>
<circle cx="7.5" cy="10.5" r="1.5" fill="#212121"/>
<circle cx="7.5" cy="16.5" r="1.5" fill="#212121"/>
</svg>
