<svg width="17" height="18" viewBox="0 0 17 18" fill="none" xmlns="http://www.w3.org/2000/svg">
<circle cx="0.625" cy="1.875" r="0.625" fill="white"/>
<circle cx="1.875" cy="0.625" r="0.625" fill="white"/>
<circle cx="3.125" cy="0.625" r="0.625" fill="white"/>
<circle cx="4.375" cy="1.875" r="0.625" fill="white"/>
<circle cx="4.375" cy="3.125" r="0.625" fill="white"/>
<circle cx="3.125" cy="4.375" r="0.625" fill="white"/>
<circle cx="1.875" cy="4.375" r="0.625" fill="white"/>
<circle cx="0.625" cy="3.125" r="0.625" fill="white"/>
<circle cx="0.625" cy="8.09723" r="0.625" fill="white"/>
<circle cx="1.875" cy="6.84723" r="0.625" fill="white"/>
<circle cx="3.125" cy="6.84723" r="0.625" fill="white"/>
<circle cx="4.375" cy="8.09723" r="0.625" fill="white"/>
<circle cx="4.375" cy="9.34723" r="0.625" fill="white"/>
<circle cx="3.125" cy="10.5972" r="0.625" fill="white"/>
<circle cx="1.875" cy="10.5972" r="0.625" fill="white"/>
<circle cx="0.625" cy="9.34723" r="0.625" fill="white"/>
<circle cx="0.625" cy="14.3195" r="0.625" fill="white"/>
<circle cx="1.875" cy="13.0695" r="0.625" fill="white"/>
<circle cx="3.125" cy="13.0695" r="0.625" fill="white"/>
<circle cx="4.375" cy="14.3195" r="0.625" fill="white"/>
<circle cx="4.375" cy="15.5695" r="0.625" fill="white"/>
<circle cx="3.125" cy="16.8195" r="0.625" fill="white"/>
<circle cx="1.875" cy="16.8195" r="0.625" fill="white"/>
<circle cx="0.625" cy="15.5695" r="0.625" fill="white"/>
<circle cx="6.625" cy="1.875" r="0.625" fill="white"/>
<circle cx="7.875" cy="0.625" r="0.625" fill="white"/>
<circle cx="9.125" cy="0.625" r="0.625" fill="white"/>
<circle cx="10.375" cy="1.875" r="0.625" fill="white"/>
<circle cx="10.375" cy="3.125" r="0.625" fill="white"/>
<circle cx="9.125" cy="4.375" r="0.625" fill="white"/>
<circle cx="7.875" cy="4.375" r="0.625" fill="white"/>
<circle cx="6.625" cy="3.125" r="0.625" fill="white"/>
<circle cx="6.625" cy="8.09723" r="0.625" fill="white"/>
<circle cx="7.875" cy="6.84723" r="0.625" fill="white"/>
<circle cx="9.125" cy="6.84723" r="0.625" fill="white"/>
<circle cx="10.375" cy="8.09723" r="0.625" fill="white"/>
<circle cx="10.375" cy="9.34723" r="0.625" fill="white"/>
<circle cx="9.125" cy="10.5972" r="0.625" fill="white"/>
<circle cx="7.875" cy="10.5972" r="0.625" fill="white"/>
<circle cx="6.625" cy="9.34723" r="0.625" fill="white"/>
<circle cx="6.625" cy="14.3195" r="0.625" fill="white"/>
<circle cx="7.875" cy="13.0695" r="0.625" fill="white"/>
<circle cx="9.125" cy="13.0695" r="0.625" fill="white"/>
<circle cx="10.375" cy="14.3195" r="0.625" fill="white"/>
<circle cx="10.375" cy="15.5695" r="0.625" fill="white"/>
<circle cx="9.125" cy="16.8195" r="0.625" fill="white"/>
<circle cx="7.875" cy="16.8195" r="0.625" fill="white"/>
<circle cx="6.625" cy="15.5695" r="0.625" fill="white"/>
<circle cx="12.625" cy="1.875" r="0.625" fill="white"/>
<circle cx="13.875" cy="0.625" r="0.625" fill="white"/>
<circle cx="15.125" cy="0.625" r="0.625" fill="white"/>
<circle cx="16.375" cy="1.875" r="0.625" fill="white"/>
<circle cx="16.375" cy="3.125" r="0.625" fill="white"/>
<circle cx="15.125" cy="4.375" r="0.625" fill="white"/>
<circle cx="13.875" cy="4.375" r="0.625" fill="white"/>
<circle cx="12.625" cy="3.125" r="0.625" fill="white"/>
<circle cx="12.625" cy="8.09723" r="0.625" fill="white"/>
<circle cx="13.875" cy="6.84723" r="0.625" fill="white"/>
<circle cx="15.125" cy="6.84723" r="0.625" fill="white"/>
<circle cx="16.375" cy="8.09723" r="0.625" fill="white"/>
<circle cx="16.375" cy="9.34723" r="0.625" fill="white"/>
<circle cx="15.125" cy="10.5972" r="0.625" fill="white"/>
<circle cx="13.875" cy="10.5972" r="0.625" fill="white"/>
<circle cx="12.625" cy="9.34723" r="0.625" fill="white"/>
<circle cx="12.625" cy="14.3195" r="0.625" fill="white"/>
<circle cx="13.875" cy="13.0695" r="0.625" fill="white"/>
<circle cx="15.125" cy="13.0695" r="0.625" fill="white"/>
<circle cx="16.375" cy="14.3195" r="0.625" fill="white"/>
<circle cx="16.375" cy="15.5695" r="0.625" fill="white"/>
<circle cx="15.125" cy="16.8195" r="0.625" fill="white"/>
<circle cx="13.875" cy="16.8195" r="0.625" fill="white"/>
<circle cx="12.625" cy="15.5695" r="0.625" fill="white"/>
</svg>
