<svg width="17" height="15" viewBox="0 0 17 15" fill="none" xmlns="http://www.w3.org/2000/svg">
<circle cx="3.625" cy="1.875" r="0.625" fill="white"/>
<circle cx="4.875" cy="0.625" r="0.625" fill="white"/>
<circle cx="6.125" cy="0.625" r="0.625" fill="white"/>
<circle cx="7.375" cy="1.875" r="0.625" fill="white"/>
<circle cx="7.375" cy="3.125" r="0.625" fill="white"/>
<circle cx="6.125" cy="4.375" r="0.625" fill="white"/>
<circle cx="4.875" cy="4.375" r="0.625" fill="white"/>
<circle cx="3.625" cy="3.125" r="0.625" fill="white"/>
<circle cx="0.625" cy="6.875" r="0.625" fill="white"/>
<circle cx="1.875" cy="5.625" r="0.625" fill="white"/>
<circle cx="3.125" cy="5.625" r="0.625" fill="white"/>
<circle cx="4.375" cy="6.875" r="0.625" fill="white"/>
<circle cx="4.375" cy="8.125" r="0.625" fill="white"/>
<circle cx="3.125" cy="9.375" r="0.625" fill="white"/>
<circle cx="1.875" cy="9.375" r="0.625" fill="white"/>
<circle cx="0.625" cy="8.125" r="0.625" fill="white"/>
<circle cx="3.625" cy="11.875" r="0.625" fill="white"/>
<circle cx="4.875" cy="10.625" r="0.625" fill="white"/>
<circle cx="6.125" cy="10.625" r="0.625" fill="white"/>
<circle cx="7.375" cy="11.875" r="0.625" fill="white"/>
<circle cx="7.375" cy="13.125" r="0.625" fill="white"/>
<circle cx="6.125" cy="14.375" r="0.625" fill="white"/>
<circle cx="4.875" cy="14.375" r="0.625" fill="white"/>
<circle cx="3.625" cy="13.125" r="0.625" fill="white"/>
<circle cx="0.625" cy="0.625" r="0.625" transform="matrix(-1 0 0 1 14 1.25)" fill="white"/>
<circle cx="0.625" cy="0.625" r="0.625" transform="matrix(-1 0 0 1 12.75 0)" fill="white"/>
<circle cx="0.625" cy="0.625" r="0.625" transform="matrix(-1 0 0 1 11.5 0)" fill="white"/>
<circle cx="0.625" cy="0.625" r="0.625" transform="matrix(-1 0 0 1 10.25 1.25)" fill="white"/>
<circle cx="0.625" cy="0.625" r="0.625" transform="matrix(-1 0 0 1 10.25 2.5)" fill="white"/>
<circle cx="0.625" cy="0.625" r="0.625" transform="matrix(-1 0 0 1 11.5 3.75)" fill="white"/>
<circle cx="0.625" cy="0.625" r="0.625" transform="matrix(-1 0 0 1 12.75 3.75)" fill="white"/>
<circle cx="0.625" cy="0.625" r="0.625" transform="matrix(-1 0 0 1 14 2.5)" fill="white"/>
<circle cx="0.625" cy="0.625" r="0.625" transform="matrix(-1 0 0 1 11 6.25)" fill="white"/>
<circle cx="0.625" cy="0.625" r="0.625" transform="matrix(-1 0 0 1 9.75 5)" fill="white"/>
<circle cx="0.625" cy="0.625" r="0.625" transform="matrix(-1 0 0 1 8.5 5)" fill="white"/>
<circle cx="0.625" cy="0.625" r="0.625" transform="matrix(-1 0 0 1 7.25 6.25)" fill="white"/>
<circle cx="0.625" cy="0.625" r="0.625" transform="matrix(-1 0 0 1 7.25 7.5)" fill="white"/>
<circle cx="0.625" cy="0.625" r="0.625" transform="matrix(-1 0 0 1 8.5 8.75)" fill="white"/>
<circle cx="0.625" cy="0.625" r="0.625" transform="matrix(-1 0 0 1 9.75 8.75)" fill="white"/>
<circle cx="0.625" cy="0.625" r="0.625" transform="matrix(-1 0 0 1 11 7.5)" fill="white"/>
<circle cx="0.625" cy="0.625" r="0.625" transform="matrix(-1 0 0 1 17 6.25)" fill="white"/>
<circle cx="0.625" cy="0.625" r="0.625" transform="matrix(-1 0 0 1 15.75 5)" fill="white"/>
<circle cx="0.625" cy="0.625" r="0.625" transform="matrix(-1 0 0 1 14.5 5)" fill="white"/>
<circle cx="0.625" cy="0.625" r="0.625" transform="matrix(-1 0 0 1 13.25 6.25)" fill="white"/>
<circle cx="0.625" cy="0.625" r="0.625" transform="matrix(-1 0 0 1 13.25 7.5)" fill="white"/>
<circle cx="0.625" cy="0.625" r="0.625" transform="matrix(-1 0 0 1 14.5 8.75)" fill="white"/>
<circle cx="0.625" cy="0.625" r="0.625" transform="matrix(-1 0 0 1 15.75 8.75)" fill="white"/>
<circle cx="0.625" cy="0.625" r="0.625" transform="matrix(-1 0 0 1 17 7.5)" fill="white"/>
<circle cx="0.625" cy="0.625" r="0.625" transform="matrix(-1 0 0 1 14 11.25)" fill="white"/>
<circle cx="0.625" cy="0.625" r="0.625" transform="matrix(-1 0 0 1 12.75 10)" fill="white"/>
<circle cx="0.625" cy="0.625" r="0.625" transform="matrix(-1 0 0 1 11.5 10)" fill="white"/>
<circle cx="0.625" cy="0.625" r="0.625" transform="matrix(-1 0 0 1 10.25 11.25)" fill="white"/>
<circle cx="0.625" cy="0.625" r="0.625" transform="matrix(-1 0 0 1 10.25 12.5)" fill="white"/>
<circle cx="0.625" cy="0.625" r="0.625" transform="matrix(-1 0 0 1 11.5 13.75)" fill="white"/>
<circle cx="0.625" cy="0.625" r="0.625" transform="matrix(-1 0 0 1 12.75 13.75)" fill="white"/>
<circle cx="0.625" cy="0.625" r="0.625" transform="matrix(-1 0 0 1 14 12.5)" fill="white"/>
</svg>
